<mxfile host="65bd71144e">
    <diagram id="qCQCZ_jRftC3c8NuFR4G" name="Extendible Hashing">
        <mxGraphModel dx="1140" dy="800" grid="0" gridSize="10" guides="1" tooltips="1" connect="1" arrows="1" fold="1" page="1" pageScale="1" pageWidth="1169" pageHeight="827" math="0" shadow="0">
            <root>
                <mxCell id="0"/>
                <mxCell id="1" parent="0"/>
                <mxCell id="125" value="Insert Key: 10111..." style="shape=flexArrow;endArrow=classic;html=1;fontColor=#5AA9E6;strokeColor=#FF6392;fillColor=#FFE45E;labelBackgroundColor=none;" parent="1" edge="1">
                    <mxGeometry width="50" height="50" relative="1" as="geometry">
                        <mxPoint x="509" y="203" as="sourcePoint"/>
                        <mxPoint x="649" y="203.42000000000002" as="targetPoint"/>
                    </mxGeometry>
                </mxCell>
                <mxCell id="163" value="Split" style="shape=flexArrow;endArrow=classic;html=1;labelBackgroundColor=none;strokeColor=#FF6392;fillColor=#FFE45E;fontColor=#5AA9E6;horizontal=1;fontSize=17;" parent="1" edge="1">
                    <mxGeometry width="50" height="50" relative="1" as="geometry">
                        <mxPoint x="804" y="360" as="sourcePoint"/>
                        <mxPoint x="643" y="432" as="targetPoint"/>
                    </mxGeometry>
                </mxCell>
                <mxCell id="265" value="" style="group;fontColor=#5AA9E6;" parent="1" vertex="1" connectable="0">
                    <mxGeometry x="246" y="62" width="240" height="264" as="geometry"/>
                </mxCell>
                <mxCell id="226" value="Global: 2" style="shape=table;startSize=30;container=1;collapsible=0;childLayout=tableLayout;fontStyle=1;align=center;rounded=0;sketch=0;fontColor=#5AA9E6;strokeColor=#FF6392;fillColor=#FFE45E;" parent="265" vertex="1">
                    <mxGeometry width="240" height="110" as="geometry"/>
                </mxCell>
                <mxCell id="227" value="" style="shape=partialRectangle;html=1;whiteSpace=wrap;collapsible=0;dropTarget=0;pointerEvents=0;fillColor=none;top=0;left=0;bottom=0;right=0;points=[[0,0.5],[1,0.5]];portConstraint=eastwest;strokeColor=#FF6392;fontColor=#5AA9E6;" parent="226" vertex="1">
                    <mxGeometry y="30" width="240" height="40" as="geometry"/>
                </mxCell>
                <mxCell id="228" value="00..." style="shape=partialRectangle;html=1;whiteSpace=wrap;connectable=0;fillColor=none;top=0;left=0;bottom=0;right=0;overflow=hidden;strokeColor=#FF6392;fontColor=#5AA9E6;" parent="227" vertex="1">
                    <mxGeometry width="60" height="40" as="geometry"/>
                </mxCell>
                <mxCell id="229" value="01..." style="shape=partialRectangle;html=1;whiteSpace=wrap;connectable=0;fillColor=none;top=0;left=0;bottom=0;right=0;overflow=hidden;strokeColor=#FF6392;fontColor=#5AA9E6;" parent="227" vertex="1">
                    <mxGeometry x="60" width="60" height="40" as="geometry"/>
                </mxCell>
                <mxCell id="230" value="10..." style="shape=partialRectangle;html=1;whiteSpace=wrap;connectable=0;fillColor=none;top=0;left=0;bottom=0;right=0;overflow=hidden;strokeColor=#FF6392;fontColor=#5AA9E6;" parent="227" vertex="1">
                    <mxGeometry x="120" width="60" height="40" as="geometry"/>
                </mxCell>
                <mxCell id="239" value="11..." style="shape=partialRectangle;html=1;whiteSpace=wrap;connectable=0;fillColor=none;top=0;left=0;bottom=0;right=0;overflow=hidden;strokeColor=#FF6392;fontColor=#5AA9E6;" parent="227" vertex="1">
                    <mxGeometry x="180" width="60" height="40" as="geometry"/>
                </mxCell>
                <mxCell id="231" value="" style="shape=partialRectangle;html=1;whiteSpace=wrap;collapsible=0;dropTarget=0;pointerEvents=0;fillColor=none;top=0;left=0;bottom=0;right=0;points=[[0,0.5],[1,0.5]];portConstraint=eastwest;strokeColor=#FF6392;fontColor=#5AA9E6;" parent="226" vertex="1">
                    <mxGeometry y="70" width="240" height="40" as="geometry"/>
                </mxCell>
                <mxCell id="232" value="" style="shape=partialRectangle;html=1;whiteSpace=wrap;connectable=0;fillColor=none;top=0;left=0;bottom=0;right=0;overflow=hidden;strokeColor=#FF6392;fontColor=#5AA9E6;" parent="231" vertex="1">
                    <mxGeometry width="60" height="40" as="geometry"/>
                </mxCell>
                <mxCell id="233" value="" style="shape=partialRectangle;html=1;whiteSpace=wrap;connectable=0;fillColor=none;top=0;left=0;bottom=0;right=0;overflow=hidden;strokeColor=#FF6392;fontColor=#5AA9E6;" parent="231" vertex="1">
                    <mxGeometry x="60" width="60" height="40" as="geometry"/>
                </mxCell>
                <mxCell id="234" value="" style="shape=partialRectangle;html=1;whiteSpace=wrap;connectable=0;fillColor=none;top=0;left=0;bottom=0;right=0;overflow=hidden;strokeColor=#FF6392;fontColor=#5AA9E6;" parent="231" vertex="1">
                    <mxGeometry x="120" width="60" height="40" as="geometry"/>
                </mxCell>
                <mxCell id="240" style="shape=partialRectangle;html=1;whiteSpace=wrap;connectable=0;fillColor=none;top=0;left=0;bottom=0;right=0;overflow=hidden;strokeColor=#FF6392;fontColor=#5AA9E6;" parent="231" vertex="1">
                    <mxGeometry x="180" width="60" height="40" as="geometry"/>
                </mxCell>
                <mxCell id="241" value="" style="shape=waypoint;sketch=0;size=6;pointerEvents=1;points=[];fillColor=#FFE45E;resizable=0;rotatable=0;perimeter=centerPerimeter;snapToPoint=1;rounded=0;fontColor=#5AA9E6;fontStyle=1;strokeColor=#FF6392;startSize=30;comic=0;" parent="265" vertex="1">
                    <mxGeometry x="10" y="70" width="40" height="40" as="geometry"/>
                </mxCell>
                <mxCell id="242" value="" style="shape=waypoint;sketch=0;size=6;pointerEvents=1;points=[];fillColor=#FFE45E;resizable=0;rotatable=0;perimeter=centerPerimeter;snapToPoint=1;rounded=0;fontColor=#5AA9E6;fontStyle=1;strokeColor=#FF6392;startSize=30;comic=0;" parent="265" vertex="1">
                    <mxGeometry x="70" y="70" width="40" height="40" as="geometry"/>
                </mxCell>
                <mxCell id="243" value="" style="shape=waypoint;sketch=0;size=6;pointerEvents=1;points=[];fillColor=#FFE45E;resizable=0;rotatable=0;perimeter=centerPerimeter;snapToPoint=1;rounded=0;fontColor=#5AA9E6;fontStyle=1;strokeColor=#FF6392;startSize=30;comic=0;" parent="265" vertex="1">
                    <mxGeometry x="190" y="70" width="40" height="40" as="geometry"/>
                </mxCell>
                <mxCell id="244" value="" style="shape=waypoint;sketch=0;size=6;pointerEvents=1;points=[];fillColor=#FFE45E;resizable=0;rotatable=0;perimeter=centerPerimeter;snapToPoint=1;rounded=0;fontColor=#5AA9E6;fontStyle=1;strokeColor=#FF6392;startSize=30;comic=0;" parent="265" vertex="1">
                    <mxGeometry x="130" y="70" width="40" height="40" as="geometry"/>
                </mxCell>
                <mxCell id="249" value="Local: 1" style="swimlane;fontStyle=0;childLayout=stackLayout;horizontal=1;startSize=26;fillColor=none;horizontalStack=0;resizeParent=1;resizeParentMax=0;resizeLast=0;collapsible=1;marginBottom=0;fontColor=#5AA9E6;strokeColor=#FF6392;" parent="265" vertex="1">
                    <mxGeometry x="13" y="160" width="60" height="104" as="geometry">
                        <mxRectangle x="440" y="268.5" width="70" height="26" as="alternateBounds"/>
                    </mxGeometry>
                </mxCell>
                <mxCell id="250" value="00010..." style="text;fillColor=none;align=left;verticalAlign=top;spacingLeft=4;spacingRight=4;overflow=hidden;rotatable=0;points=[[0,0.5],[1,0.5]];portConstraint=eastwest;fontColor=#5AA9E6;strokeColor=#FF6392;" parent="249" vertex="1">
                    <mxGeometry y="26" width="60" height="26" as="geometry"/>
                </mxCell>
                <mxCell id="251" value="01110..." style="text;fillColor=none;align=left;verticalAlign=top;spacingLeft=4;spacingRight=4;overflow=hidden;rotatable=0;points=[[0,0.5],[1,0.5]];portConstraint=eastwest;fontColor=#5AA9E6;strokeColor=#FF6392;" parent="249" vertex="1">
                    <mxGeometry y="52" width="60" height="26" as="geometry"/>
                </mxCell>
                <mxCell id="252" value="Â " style="text;strokeColor=none;fillColor=none;align=left;verticalAlign=top;spacingLeft=4;spacingRight=4;overflow=hidden;rotatable=0;points=[[0,0.5],[1,0.5]];portConstraint=eastwest;fontColor=#5AA9E6;" parent="249" vertex="1">
                    <mxGeometry y="78" width="60" height="26" as="geometry"/>
                </mxCell>
                <mxCell id="261" value="" style="edgeStyle=none;rounded=1;sketch=0;orthogonalLoop=1;jettySize=auto;html=1;labelBackgroundColor=none;fontColor=#5AA9E6;strokeColor=#FF6392;fillColor=#FFE45E;entryX=0.25;entryY=0;entryDx=0;entryDy=0;" parent="265" source="241" target="249" edge="1">
                    <mxGeometry relative="1" as="geometry"/>
                </mxCell>
                <mxCell id="262" value="" style="edgeStyle=none;rounded=1;sketch=0;orthogonalLoop=1;jettySize=auto;html=1;labelBackgroundColor=none;fontColor=#5AA9E6;strokeColor=#FF6392;fillColor=#FFE45E;entryX=0.75;entryY=0;entryDx=0;entryDy=0;" parent="265" source="242" target="249" edge="1">
                    <mxGeometry relative="1" as="geometry"/>
                </mxCell>
                <mxCell id="253" value="Local: 2" style="swimlane;fontStyle=0;childLayout=stackLayout;horizontal=1;startSize=26;fillColor=none;horizontalStack=0;resizeParent=1;resizeParentMax=0;resizeLast=0;collapsible=1;marginBottom=0;fontColor=#5AA9E6;strokeColor=#FF6392;" parent="265" vertex="1">
                    <mxGeometry x="103" y="160" width="60" height="104" as="geometry">
                        <mxRectangle x="440" y="268.5" width="70" height="26" as="alternateBounds"/>
                    </mxGeometry>
                </mxCell>
                <mxCell id="254" value="10101..." style="text;fillColor=none;align=left;verticalAlign=top;spacingLeft=4;spacingRight=4;overflow=hidden;rotatable=0;points=[[0,0.5],[1,0.5]];portConstraint=eastwest;fontColor=#5AA9E6;strokeColor=#FF6392;" parent="253" vertex="1">
                    <mxGeometry y="26" width="60" height="26" as="geometry"/>
                </mxCell>
                <mxCell id="255" value="10011..." style="text;fillColor=none;align=left;verticalAlign=top;spacingLeft=4;spacingRight=4;overflow=hidden;rotatable=0;points=[[0,0.5],[1,0.5]];portConstraint=eastwest;fontColor=#5AA9E6;strokeColor=#FF6392;" parent="253" vertex="1">
                    <mxGeometry y="52" width="60" height="26" as="geometry"/>
                </mxCell>
                <mxCell id="256" value="Â " style="text;strokeColor=none;fillColor=none;align=left;verticalAlign=top;spacingLeft=4;spacingRight=4;overflow=hidden;rotatable=0;points=[[0,0.5],[1,0.5]];portConstraint=eastwest;fontColor=#5AA9E6;" parent="253" vertex="1">
                    <mxGeometry y="78" width="60" height="26" as="geometry"/>
                </mxCell>
                <mxCell id="263" value="" style="edgeStyle=none;rounded=1;sketch=0;orthogonalLoop=1;jettySize=auto;html=1;labelBackgroundColor=none;fontColor=#5AA9E6;strokeColor=#FF6392;fillColor=#FFE45E;entryX=0.5;entryY=0;entryDx=0;entryDy=0;" parent="265" source="244" target="253" edge="1">
                    <mxGeometry relative="1" as="geometry"/>
                </mxCell>
                <mxCell id="257" value="Local: 2" style="swimlane;fontStyle=0;childLayout=stackLayout;horizontal=1;startSize=26;fillColor=none;horizontalStack=0;resizeParent=1;resizeParentMax=0;resizeLast=0;collapsible=1;marginBottom=0;fontColor=#5AA9E6;strokeColor=#FF6392;" parent="265" vertex="1">
                    <mxGeometry x="170" y="160" width="60" height="104" as="geometry">
                        <mxRectangle x="440" y="268.5" width="70" height="26" as="alternateBounds"/>
                    </mxGeometry>
                </mxCell>
                <mxCell id="258" value="11010..." style="text;fillColor=none;align=left;verticalAlign=top;spacingLeft=4;spacingRight=4;overflow=hidden;rotatable=0;points=[[0,0.5],[1,0.5]];portConstraint=eastwest;fontColor=#5AA9E6;strokeColor=#FF6392;" parent="257" vertex="1">
                    <mxGeometry y="26" width="60" height="26" as="geometry"/>
                </mxCell>
                <mxCell id="259" value="Â " style="text;fillColor=none;align=left;verticalAlign=top;spacingLeft=4;spacingRight=4;overflow=hidden;rotatable=0;points=[[0,0.5],[1,0.5]];portConstraint=eastwest;fontColor=#5AA9E6;strokeColor=#FF6392;" parent="257" vertex="1">
                    <mxGeometry y="52" width="60" height="26" as="geometry"/>
                </mxCell>
                <mxCell id="260" value="Â " style="text;strokeColor=none;fillColor=none;align=left;verticalAlign=top;spacingLeft=4;spacingRight=4;overflow=hidden;rotatable=0;points=[[0,0.5],[1,0.5]];portConstraint=eastwest;fontColor=#5AA9E6;" parent="257" vertex="1">
                    <mxGeometry y="78" width="60" height="26" as="geometry"/>
                </mxCell>
                <mxCell id="264" value="" style="edgeStyle=none;rounded=1;sketch=0;orthogonalLoop=1;jettySize=auto;html=1;labelBackgroundColor=none;fontColor=#5AA9E6;strokeColor=#FF6392;fillColor=#FFE45E;entryX=0.5;entryY=0;entryDx=0;entryDy=0;" parent="265" source="243" target="257" edge="1">
                    <mxGeometry relative="1" as="geometry"/>
                </mxCell>
                <mxCell id="266" value="" style="group;fontColor=#5AA9E6;" parent="1" vertex="1" connectable="0">
                    <mxGeometry x="684" y="70" width="240" height="264" as="geometry"/>
                </mxCell>
                <mxCell id="267" value="Global: 2" style="shape=table;startSize=30;container=1;collapsible=0;childLayout=tableLayout;fontStyle=1;align=center;rounded=0;sketch=0;fontColor=#5AA9E6;strokeColor=#FF6392;fillColor=#FFE45E;" parent="266" vertex="1">
                    <mxGeometry width="240" height="110" as="geometry"/>
                </mxCell>
                <mxCell id="268" value="" style="shape=partialRectangle;html=1;whiteSpace=wrap;collapsible=0;dropTarget=0;pointerEvents=0;fillColor=none;top=0;left=0;bottom=0;right=0;points=[[0,0.5],[1,0.5]];portConstraint=eastwest;strokeColor=#FF6392;fontColor=#5AA9E6;" parent="267" vertex="1">
                    <mxGeometry y="30" width="240" height="40" as="geometry"/>
                </mxCell>
                <mxCell id="269" value="00..." style="shape=partialRectangle;html=1;whiteSpace=wrap;connectable=0;fillColor=none;top=0;left=0;bottom=0;right=0;overflow=hidden;strokeColor=#FF6392;fontColor=#5AA9E6;" parent="268" vertex="1">
                    <mxGeometry width="60" height="40" as="geometry"/>
                </mxCell>
                <mxCell id="270" value="01..." style="shape=partialRectangle;html=1;whiteSpace=wrap;connectable=0;fillColor=none;top=0;left=0;bottom=0;right=0;overflow=hidden;strokeColor=#FF6392;fontColor=#5AA9E6;" parent="268" vertex="1">
                    <mxGeometry x="60" width="60" height="40" as="geometry"/>
                </mxCell>
                <mxCell id="271" value="10..." style="shape=partialRectangle;html=1;whiteSpace=wrap;connectable=0;fillColor=none;top=0;left=0;bottom=0;right=0;overflow=hidden;strokeColor=#FF6392;fontColor=#5AA9E6;" parent="268" vertex="1">
                    <mxGeometry x="120" width="60" height="40" as="geometry"/>
                </mxCell>
                <mxCell id="272" value="11..." style="shape=partialRectangle;html=1;whiteSpace=wrap;connectable=0;fillColor=none;top=0;left=0;bottom=0;right=0;overflow=hidden;strokeColor=#FF6392;fontColor=#5AA9E6;" parent="268" vertex="1">
                    <mxGeometry x="180" width="60" height="40" as="geometry"/>
                </mxCell>
                <mxCell id="273" value="" style="shape=partialRectangle;html=1;whiteSpace=wrap;collapsible=0;dropTarget=0;pointerEvents=0;fillColor=none;top=0;left=0;bottom=0;right=0;points=[[0,0.5],[1,0.5]];portConstraint=eastwest;strokeColor=#FF6392;fontColor=#5AA9E6;" parent="267" vertex="1">
                    <mxGeometry y="70" width="240" height="40" as="geometry"/>
                </mxCell>
                <mxCell id="274" value="" style="shape=partialRectangle;html=1;whiteSpace=wrap;connectable=0;fillColor=none;top=0;left=0;bottom=0;right=0;overflow=hidden;strokeColor=#FF6392;fontColor=#5AA9E6;" parent="273" vertex="1">
                    <mxGeometry width="60" height="40" as="geometry"/>
                </mxCell>
                <mxCell id="275" value="" style="shape=partialRectangle;html=1;whiteSpace=wrap;connectable=0;fillColor=none;top=0;left=0;bottom=0;right=0;overflow=hidden;strokeColor=#FF6392;fontColor=#5AA9E6;" parent="273" vertex="1">
                    <mxGeometry x="60" width="60" height="40" as="geometry"/>
                </mxCell>
                <mxCell id="276" value="" style="shape=partialRectangle;html=1;whiteSpace=wrap;connectable=0;fillColor=none;top=0;left=0;bottom=0;right=0;overflow=hidden;strokeColor=#FF6392;fontColor=#5AA9E6;" parent="273" vertex="1">
                    <mxGeometry x="120" width="60" height="40" as="geometry"/>
                </mxCell>
                <mxCell id="277" style="shape=partialRectangle;html=1;whiteSpace=wrap;connectable=0;fillColor=none;top=0;left=0;bottom=0;right=0;overflow=hidden;strokeColor=#FF6392;fontColor=#5AA9E6;" parent="273" vertex="1">
                    <mxGeometry x="180" width="60" height="40" as="geometry"/>
                </mxCell>
                <mxCell id="278" value="" style="shape=waypoint;sketch=0;size=6;pointerEvents=1;points=[];fillColor=#FFE45E;resizable=0;rotatable=0;perimeter=centerPerimeter;snapToPoint=1;rounded=0;fontColor=#5AA9E6;fontStyle=1;strokeColor=#FF6392;startSize=30;comic=0;" parent="266" vertex="1">
                    <mxGeometry x="10" y="70" width="40" height="40" as="geometry"/>
                </mxCell>
                <mxCell id="279" value="" style="shape=waypoint;sketch=0;size=6;pointerEvents=1;points=[];fillColor=#FFE45E;resizable=0;rotatable=0;perimeter=centerPerimeter;snapToPoint=1;rounded=0;fontColor=#5AA9E6;fontStyle=1;strokeColor=#FF6392;startSize=30;comic=0;" parent="266" vertex="1">
                    <mxGeometry x="70" y="70" width="40" height="40" as="geometry"/>
                </mxCell>
                <mxCell id="280" value="" style="shape=waypoint;sketch=0;size=6;pointerEvents=1;points=[];fillColor=#FFE45E;resizable=0;rotatable=0;perimeter=centerPerimeter;snapToPoint=1;rounded=0;fontColor=#5AA9E6;fontStyle=1;strokeColor=#FF6392;startSize=30;comic=0;" parent="266" vertex="1">
                    <mxGeometry x="190" y="70" width="40" height="40" as="geometry"/>
                </mxCell>
                <mxCell id="281" value="" style="shape=waypoint;sketch=0;size=6;pointerEvents=1;points=[];fillColor=#FFE45E;resizable=0;rotatable=0;perimeter=centerPerimeter;snapToPoint=1;rounded=0;fontColor=#5AA9E6;fontStyle=1;strokeColor=#FF6392;startSize=30;comic=0;" parent="266" vertex="1">
                    <mxGeometry x="130" y="70" width="40" height="40" as="geometry"/>
                </mxCell>
                <mxCell id="282" value="Local: 1" style="swimlane;fontStyle=0;childLayout=stackLayout;horizontal=1;startSize=26;fillColor=none;horizontalStack=0;resizeParent=1;resizeParentMax=0;resizeLast=0;collapsible=1;marginBottom=0;fontColor=#5AA9E6;strokeColor=#FF6392;" parent="266" vertex="1">
                    <mxGeometry x="13" y="160" width="60" height="104" as="geometry">
                        <mxRectangle x="440" y="268.5" width="70" height="26" as="alternateBounds"/>
                    </mxGeometry>
                </mxCell>
                <mxCell id="283" value="00010..." style="text;fillColor=none;align=left;verticalAlign=top;spacingLeft=4;spacingRight=4;overflow=hidden;rotatable=0;points=[[0,0.5],[1,0.5]];portConstraint=eastwest;fontColor=#5AA9E6;strokeColor=#FF6392;" parent="282" vertex="1">
                    <mxGeometry y="26" width="60" height="26" as="geometry"/>
                </mxCell>
                <mxCell id="284" value="01110..." style="text;fillColor=none;align=left;verticalAlign=top;spacingLeft=4;spacingRight=4;overflow=hidden;rotatable=0;points=[[0,0.5],[1,0.5]];portConstraint=eastwest;fontColor=#5AA9E6;strokeColor=#FF6392;" parent="282" vertex="1">
                    <mxGeometry y="52" width="60" height="26" as="geometry"/>
                </mxCell>
                <mxCell id="285" value="Â " style="text;strokeColor=none;fillColor=none;align=left;verticalAlign=top;spacingLeft=4;spacingRight=4;overflow=hidden;rotatable=0;points=[[0,0.5],[1,0.5]];portConstraint=eastwest;fontColor=#5AA9E6;" parent="282" vertex="1">
                    <mxGeometry y="78" width="60" height="26" as="geometry"/>
                </mxCell>
                <mxCell id="286" value="" style="edgeStyle=none;rounded=1;sketch=0;orthogonalLoop=1;jettySize=auto;html=1;labelBackgroundColor=none;fontColor=#5AA9E6;strokeColor=#FF6392;fillColor=#FFE45E;entryX=0.25;entryY=0;entryDx=0;entryDy=0;" parent="266" source="278" target="282" edge="1">
                    <mxGeometry relative="1" as="geometry"/>
                </mxCell>
                <mxCell id="287" value="" style="edgeStyle=none;rounded=1;sketch=0;orthogonalLoop=1;jettySize=auto;html=1;labelBackgroundColor=none;fontColor=#5AA9E6;strokeColor=#FF6392;fillColor=#FFE45E;entryX=0.75;entryY=0;entryDx=0;entryDy=0;" parent="266" source="279" target="282" edge="1">
                    <mxGeometry relative="1" as="geometry"/>
                </mxCell>
                <mxCell id="288" value="Local: 2" style="swimlane;fontStyle=0;childLayout=stackLayout;horizontal=1;startSize=26;fillColor=none;horizontalStack=0;resizeParent=1;resizeParentMax=0;resizeLast=0;collapsible=1;marginBottom=0;fontColor=#5AA9E6;strokeColor=#FF6392;" parent="266" vertex="1">
                    <mxGeometry x="103" y="160" width="60" height="104" as="geometry">
                        <mxRectangle x="440" y="268.5" width="70" height="26" as="alternateBounds"/>
                    </mxGeometry>
                </mxCell>
                <mxCell id="289" value="10101..." style="text;fillColor=none;align=left;verticalAlign=top;spacingLeft=4;spacingRight=4;overflow=hidden;rotatable=0;points=[[0,0.5],[1,0.5]];portConstraint=eastwest;fontColor=#5AA9E6;strokeColor=#FF6392;" parent="288" vertex="1">
                    <mxGeometry y="26" width="60" height="26" as="geometry"/>
                </mxCell>
                <mxCell id="290" value="10011..." style="text;fillColor=none;align=left;verticalAlign=top;spacingLeft=4;spacingRight=4;overflow=hidden;rotatable=0;points=[[0,0.5],[1,0.5]];portConstraint=eastwest;fontColor=#5AA9E6;strokeColor=#FF6392;" parent="288" vertex="1">
                    <mxGeometry y="52" width="60" height="26" as="geometry"/>
                </mxCell>
                <mxCell id="291" value="10111..." style="text;strokeColor=none;fillColor=none;align=left;verticalAlign=top;spacingLeft=4;spacingRight=4;overflow=hidden;rotatable=0;points=[[0,0.5],[1,0.5]];portConstraint=eastwest;fontColor=#FF3333;fontStyle=3" parent="288" vertex="1">
                    <mxGeometry y="78" width="60" height="26" as="geometry"/>
                </mxCell>
                <mxCell id="292" value="" style="edgeStyle=none;rounded=1;sketch=0;orthogonalLoop=1;jettySize=auto;html=1;labelBackgroundColor=none;fontColor=#5AA9E6;strokeColor=#FF6392;fillColor=#FFE45E;entryX=0.5;entryY=0;entryDx=0;entryDy=0;" parent="266" source="281" target="288" edge="1">
                    <mxGeometry relative="1" as="geometry"/>
                </mxCell>
                <mxCell id="293" value="Local: 2" style="swimlane;fontStyle=0;childLayout=stackLayout;horizontal=1;startSize=26;fillColor=none;horizontalStack=0;resizeParent=1;resizeParentMax=0;resizeLast=0;collapsible=1;marginBottom=0;fontColor=#5AA9E6;strokeColor=#FF6392;" parent="266" vertex="1">
                    <mxGeometry x="170" y="160" width="60" height="104" as="geometry">
                        <mxRectangle x="440" y="268.5" width="70" height="26" as="alternateBounds"/>
                    </mxGeometry>
                </mxCell>
                <mxCell id="294" value="11010..." style="text;fillColor=none;align=left;verticalAlign=top;spacingLeft=4;spacingRight=4;overflow=hidden;rotatable=0;points=[[0,0.5],[1,0.5]];portConstraint=eastwest;fontColor=#5AA9E6;strokeColor=#FF6392;" parent="293" vertex="1">
                    <mxGeometry y="26" width="60" height="26" as="geometry"/>
                </mxCell>
                <mxCell id="295" value="Â " style="text;fillColor=none;align=left;verticalAlign=top;spacingLeft=4;spacingRight=4;overflow=hidden;rotatable=0;points=[[0,0.5],[1,0.5]];portConstraint=eastwest;fontColor=#5AA9E6;strokeColor=#FF6392;" parent="293" vertex="1">
                    <mxGeometry y="52" width="60" height="26" as="geometry"/>
                </mxCell>
                <mxCell id="296" value="Â " style="text;strokeColor=none;fillColor=none;align=left;verticalAlign=top;spacingLeft=4;spacingRight=4;overflow=hidden;rotatable=0;points=[[0,0.5],[1,0.5]];portConstraint=eastwest;fontColor=#5AA9E6;" parent="293" vertex="1">
                    <mxGeometry y="78" width="60" height="26" as="geometry"/>
                </mxCell>
                <mxCell id="297" value="" style="edgeStyle=none;rounded=1;sketch=0;orthogonalLoop=1;jettySize=auto;html=1;labelBackgroundColor=none;fontColor=#5AA9E6;strokeColor=#FF6392;fillColor=#FFE45E;entryX=0.5;entryY=0;entryDx=0;entryDy=0;" parent="266" source="280" target="293" edge="1">
                    <mxGeometry relative="1" as="geometry"/>
                </mxCell>
                <mxCell id="372" value="" style="group;fontColor=#5AA9E6;" parent="1" vertex="1" connectable="0">
                    <mxGeometry x="308" y="455" width="480" height="261" as="geometry"/>
                </mxCell>
                <mxCell id="314" value="Local: 1" style="swimlane;fontStyle=0;childLayout=stackLayout;horizontal=1;startSize=26;fillColor=none;horizontalStack=0;resizeParent=1;resizeParentMax=0;resizeLast=0;collapsible=1;marginBottom=0;fontColor=#5AA9E6;strokeColor=#FF6392;" parent="372" vertex="1">
                    <mxGeometry x="91" y="157" width="60" height="104" as="geometry">
                        <mxRectangle x="440" y="268.5" width="70" height="26" as="alternateBounds"/>
                    </mxGeometry>
                </mxCell>
                <mxCell id="315" value="00010..." style="text;fillColor=none;align=left;verticalAlign=top;spacingLeft=4;spacingRight=4;overflow=hidden;rotatable=0;points=[[0,0.5],[1,0.5]];portConstraint=eastwest;fontColor=#5AA9E6;strokeColor=#FF6392;" parent="314" vertex="1">
                    <mxGeometry y="26" width="60" height="26" as="geometry"/>
                </mxCell>
                <mxCell id="316" value="01110..." style="text;fillColor=none;align=left;verticalAlign=top;spacingLeft=4;spacingRight=4;overflow=hidden;rotatable=0;points=[[0,0.5],[1,0.5]];portConstraint=eastwest;fontColor=#5AA9E6;strokeColor=#FF6392;" parent="314" vertex="1">
                    <mxGeometry y="52" width="60" height="26" as="geometry"/>
                </mxCell>
                <mxCell id="317" value="Â " style="text;strokeColor=none;fillColor=none;align=left;verticalAlign=top;spacingLeft=4;spacingRight=4;overflow=hidden;rotatable=0;points=[[0,0.5],[1,0.5]];portConstraint=eastwest;fontColor=#5AA9E6;" parent="314" vertex="1">
                    <mxGeometry y="78" width="60" height="26" as="geometry"/>
                </mxCell>
                <mxCell id="318" value="" style="edgeStyle=none;rounded=1;sketch=0;orthogonalLoop=1;jettySize=auto;html=1;labelBackgroundColor=none;fontColor=#5AA9E6;strokeColor=#FF6392;fillColor=#FFE45E;entryX=0.5;entryY=0;entryDx=0;entryDy=0;" parent="372" source="352" target="314" edge="1">
                    <mxGeometry x="30" as="geometry">
                        <mxPoint x="-43" y="104" as="sourcePoint"/>
                        <mxPoint x="40" y="186" as="targetPoint"/>
                    </mxGeometry>
                </mxCell>
                <mxCell id="341" value="" style="group;fontColor=#5AA9E6;" parent="372" vertex="1" connectable="0">
                    <mxGeometry x="360" y="70" width="60" height="191" as="geometry"/>
                </mxCell>
                <mxCell id="312" value="" style="shape=waypoint;sketch=0;size=6;pointerEvents=1;points=[];fillColor=#FFE45E;resizable=0;rotatable=0;perimeter=centerPerimeter;snapToPoint=1;rounded=0;fontColor=#5AA9E6;fontStyle=1;strokeColor=#FF6392;startSize=30;comic=0;" parent="341" vertex="1">
                    <mxGeometry x="10" width="40" height="40" as="geometry"/>
                </mxCell>
                <mxCell id="325" value="Local: 2" style="swimlane;fontStyle=0;childLayout=stackLayout;horizontal=1;startSize=26;fillColor=none;horizontalStack=0;resizeParent=1;resizeParentMax=0;resizeLast=0;collapsible=1;marginBottom=0;fontColor=#5AA9E6;strokeColor=#FF6392;" parent="341" vertex="1">
                    <mxGeometry y="87" width="60" height="104" as="geometry">
                        <mxRectangle x="440" y="268.5" width="70" height="26" as="alternateBounds"/>
                    </mxGeometry>
                </mxCell>
                <mxCell id="326" value="11010..." style="text;fillColor=none;align=left;verticalAlign=top;spacingLeft=4;spacingRight=4;overflow=hidden;rotatable=0;points=[[0,0.5],[1,0.5]];portConstraint=eastwest;fontColor=#5AA9E6;strokeColor=#FF6392;" parent="325" vertex="1">
                    <mxGeometry y="26" width="60" height="26" as="geometry"/>
                </mxCell>
                <mxCell id="327" value="Â " style="text;fillColor=none;align=left;verticalAlign=top;spacingLeft=4;spacingRight=4;overflow=hidden;rotatable=0;points=[[0,0.5],[1,0.5]];portConstraint=eastwest;fontColor=#5AA9E6;strokeColor=#FF6392;" parent="325" vertex="1">
                    <mxGeometry y="52" width="60" height="26" as="geometry"/>
                </mxCell>
                <mxCell id="328" value="Â " style="text;strokeColor=none;fillColor=none;align=left;verticalAlign=top;spacingLeft=4;spacingRight=4;overflow=hidden;rotatable=0;points=[[0,0.5],[1,0.5]];portConstraint=eastwest;fontColor=#5AA9E6;" parent="325" vertex="1">
                    <mxGeometry y="78" width="60" height="26" as="geometry"/>
                </mxCell>
                <mxCell id="329" value="" style="edgeStyle=none;rounded=1;sketch=0;orthogonalLoop=1;jettySize=auto;html=1;labelBackgroundColor=none;fontColor=#5AA9E6;strokeColor=#FF6392;fillColor=#FFE45E;entryX=0.5;entryY=0;entryDx=0;entryDy=0;" parent="341" source="312" target="325" edge="1">
                    <mxGeometry x="-180" y="-70" as="geometry"/>
                </mxCell>
                <mxCell id="299" value="Global: 3" style="shape=table;startSize=30;container=1;collapsible=0;childLayout=tableLayout;fontStyle=3;align=center;rounded=0;sketch=0;strokeColor=#FF6392;fillColor=#FFE45E;fontColor=#FF3333;" parent="372" vertex="1">
                    <mxGeometry width="480" height="110" as="geometry"/>
                </mxCell>
                <mxCell id="300" value="" style="shape=partialRectangle;html=1;whiteSpace=wrap;collapsible=0;dropTarget=0;pointerEvents=0;fillColor=none;top=0;left=0;bottom=0;right=0;points=[[0,0.5],[1,0.5]];portConstraint=eastwest;strokeColor=#FF6392;fontColor=#5AA9E6;" parent="299" vertex="1">
                    <mxGeometry y="30" width="480" height="40" as="geometry"/>
                </mxCell>
                <mxCell id="301" value="000..." style="shape=partialRectangle;html=1;whiteSpace=wrap;connectable=0;fillColor=none;top=0;left=0;bottom=0;right=0;overflow=hidden;strokeColor=#FF6392;fontColor=#5AA9E6;" parent="300" vertex="1">
                    <mxGeometry width="60" height="40" as="geometry"/>
                </mxCell>
                <mxCell id="302" value="001..." style="shape=partialRectangle;html=1;whiteSpace=wrap;connectable=0;fillColor=none;top=0;left=0;bottom=0;right=0;overflow=hidden;strokeColor=#FF6392;fontColor=#5AA9E6;" parent="300" vertex="1">
                    <mxGeometry x="60" width="60" height="40" as="geometry"/>
                </mxCell>
                <mxCell id="303" value="010..." style="shape=partialRectangle;html=1;whiteSpace=wrap;connectable=0;fillColor=none;top=0;left=0;bottom=0;right=0;overflow=hidden;strokeColor=#FF6392;fontColor=#5AA9E6;" parent="300" vertex="1">
                    <mxGeometry x="120" width="60" height="40" as="geometry"/>
                </mxCell>
                <mxCell id="304" value="011..." style="shape=partialRectangle;html=1;whiteSpace=wrap;connectable=0;fillColor=none;top=0;left=0;bottom=0;right=0;overflow=hidden;strokeColor=#FF6392;fontColor=#5AA9E6;" parent="300" vertex="1">
                    <mxGeometry x="180" width="60" height="40" as="geometry"/>
                </mxCell>
                <mxCell id="333" value="100..." style="shape=partialRectangle;html=1;whiteSpace=wrap;connectable=0;fillColor=none;top=0;left=0;bottom=0;right=0;overflow=hidden;strokeColor=#FF6392;fontColor=#5AA9E6;" parent="300" vertex="1">
                    <mxGeometry x="240" width="60" height="40" as="geometry"/>
                </mxCell>
                <mxCell id="335" value="101..." style="shape=partialRectangle;html=1;whiteSpace=wrap;connectable=0;fillColor=none;top=0;left=0;bottom=0;right=0;overflow=hidden;strokeColor=#FF6392;fontColor=#5AA9E6;" parent="300" vertex="1">
                    <mxGeometry x="300" width="60" height="40" as="geometry"/>
                </mxCell>
                <mxCell id="337" value="110..." style="shape=partialRectangle;html=1;whiteSpace=wrap;connectable=0;fillColor=none;top=0;left=0;bottom=0;right=0;overflow=hidden;strokeColor=#FF6392;fontColor=#5AA9E6;" parent="300" vertex="1">
                    <mxGeometry x="360" width="60" height="40" as="geometry"/>
                </mxCell>
                <mxCell id="339" value="111..." style="shape=partialRectangle;html=1;whiteSpace=wrap;connectable=0;fillColor=none;top=0;left=0;bottom=0;right=0;overflow=hidden;strokeColor=#FF6392;fontColor=#5AA9E6;" parent="300" vertex="1">
                    <mxGeometry x="420" width="60" height="40" as="geometry"/>
                </mxCell>
                <mxCell id="305" value="" style="shape=partialRectangle;html=1;whiteSpace=wrap;collapsible=0;dropTarget=0;pointerEvents=0;fillColor=none;top=0;left=0;bottom=0;right=0;points=[[0,0.5],[1,0.5]];portConstraint=eastwest;strokeColor=#FF6392;fontColor=#5AA9E6;" parent="299" vertex="1">
                    <mxGeometry y="70" width="480" height="40" as="geometry"/>
                </mxCell>
                <mxCell id="306" value="" style="shape=partialRectangle;html=1;whiteSpace=wrap;connectable=0;fillColor=none;top=0;left=0;bottom=0;right=0;overflow=hidden;strokeColor=#FF6392;fontColor=#5AA9E6;" parent="305" vertex="1">
                    <mxGeometry width="60" height="40" as="geometry"/>
                </mxCell>
                <mxCell id="307" value="" style="shape=partialRectangle;html=1;whiteSpace=wrap;connectable=0;fillColor=none;top=0;left=0;bottom=0;right=0;overflow=hidden;strokeColor=#FF6392;fontColor=#5AA9E6;" parent="305" vertex="1">
                    <mxGeometry x="60" width="60" height="40" as="geometry"/>
                </mxCell>
                <mxCell id="308" value="" style="shape=partialRectangle;html=1;whiteSpace=wrap;connectable=0;fillColor=none;top=0;left=0;bottom=0;right=0;overflow=hidden;strokeColor=#FF6392;fontColor=#5AA9E6;" parent="305" vertex="1">
                    <mxGeometry x="120" width="60" height="40" as="geometry"/>
                </mxCell>
                <mxCell id="309" style="shape=partialRectangle;html=1;whiteSpace=wrap;connectable=0;fillColor=none;top=0;left=0;bottom=0;right=0;overflow=hidden;strokeColor=#FF6392;fontColor=#5AA9E6;" parent="305" vertex="1">
                    <mxGeometry x="180" width="60" height="40" as="geometry"/>
                </mxCell>
                <mxCell id="334" style="shape=partialRectangle;html=1;whiteSpace=wrap;connectable=0;fillColor=none;top=0;left=0;bottom=0;right=0;overflow=hidden;strokeColor=#FF6392;fontColor=#5AA9E6;" parent="305" vertex="1">
                    <mxGeometry x="240" width="60" height="40" as="geometry"/>
                </mxCell>
                <mxCell id="336" style="shape=partialRectangle;html=1;whiteSpace=wrap;connectable=0;fillColor=none;top=0;left=0;bottom=0;right=0;overflow=hidden;strokeColor=#FF6392;fontColor=#5AA9E6;" parent="305" vertex="1">
                    <mxGeometry x="300" width="60" height="40" as="geometry"/>
                </mxCell>
                <mxCell id="338" style="shape=partialRectangle;html=1;whiteSpace=wrap;connectable=0;fillColor=none;top=0;left=0;bottom=0;right=0;overflow=hidden;strokeColor=#FF6392;fontColor=#5AA9E6;" parent="305" vertex="1">
                    <mxGeometry x="360" width="60" height="40" as="geometry"/>
                </mxCell>
                <mxCell id="340" style="shape=partialRectangle;html=1;whiteSpace=wrap;connectable=0;fillColor=none;top=0;left=0;bottom=0;right=0;overflow=hidden;strokeColor=#FF6392;fontColor=#5AA9E6;" parent="305" vertex="1">
                    <mxGeometry x="420" width="60" height="40" as="geometry"/>
                </mxCell>
                <mxCell id="345" value="" style="group;fontColor=#5AA9E6;" parent="372" vertex="1" connectable="0">
                    <mxGeometry x="189" y="70" width="40" height="40" as="geometry"/>
                </mxCell>
                <mxCell id="311" value="" style="shape=waypoint;sketch=0;size=6;pointerEvents=1;points=[];fillColor=#FFE45E;resizable=0;rotatable=0;perimeter=centerPerimeter;snapToPoint=1;rounded=0;fontColor=#5AA9E6;fontStyle=1;strokeColor=#FF6392;startSize=30;comic=0;" parent="345" vertex="1">
                    <mxGeometry width="40" height="40" as="geometry"/>
                </mxCell>
                <mxCell id="346" value="" style="group;fontColor=#5AA9E6;" parent="372" vertex="1" connectable="0">
                    <mxGeometry x="130" y="70" width="40" height="40" as="geometry"/>
                </mxCell>
                <mxCell id="347" value="" style="shape=waypoint;sketch=0;size=6;pointerEvents=1;points=[];fillColor=#FFE45E;resizable=0;rotatable=0;perimeter=centerPerimeter;snapToPoint=1;rounded=0;fontColor=#5AA9E6;fontStyle=1;strokeColor=#FF6392;startSize=30;comic=0;" parent="346" vertex="1">
                    <mxGeometry width="40" height="40" as="geometry"/>
                </mxCell>
                <mxCell id="348" value="" style="edgeStyle=none;rounded=1;sketch=0;orthogonalLoop=1;jettySize=auto;html=1;labelBackgroundColor=none;fontColor=#5AA9E6;strokeColor=#FF6392;fillColor=#FFE45E;entryX=0.75;entryY=0;entryDx=0;entryDy=0;exitX=0.447;exitY=0.549;exitDx=0;exitDy=0;exitPerimeter=0;" parent="346" source="347" edge="1">
                    <mxGeometry x="312" y="416" as="geometry">
                        <mxPoint x="1" y="33" as="sourcePoint"/>
                    </mxGeometry>
                </mxCell>
                <mxCell id="349" value="" style="group;fontColor=#5AA9E6;" parent="372" vertex="1" connectable="0">
                    <mxGeometry x="70" y="70" width="40" height="40" as="geometry"/>
                </mxCell>
                <mxCell id="350" value="" style="shape=waypoint;sketch=0;size=6;pointerEvents=1;points=[];fillColor=#FFE45E;resizable=0;rotatable=0;perimeter=centerPerimeter;snapToPoint=1;rounded=0;fontColor=#5AA9E6;fontStyle=1;strokeColor=#FF6392;startSize=30;comic=0;" parent="349" vertex="1">
                    <mxGeometry width="40" height="40" as="geometry"/>
                </mxCell>
                <mxCell id="351" value="" style="edgeStyle=none;rounded=1;sketch=0;orthogonalLoop=1;jettySize=auto;html=1;labelBackgroundColor=none;fontColor=#5AA9E6;strokeColor=#FF6392;fillColor=#FFE45E;entryX=0.75;entryY=0;entryDx=0;entryDy=0;exitX=0.447;exitY=0.549;exitDx=0;exitDy=0;exitPerimeter=0;" parent="349" source="350" edge="1">
                    <mxGeometry x="312" y="416" as="geometry">
                        <mxPoint x="1" y="33" as="sourcePoint"/>
                    </mxGeometry>
                </mxCell>
                <mxCell id="352" value="" style="shape=waypoint;sketch=0;size=6;pointerEvents=1;points=[];fillColor=#FFE45E;resizable=0;rotatable=0;perimeter=centerPerimeter;snapToPoint=1;rounded=0;fontColor=#5AA9E6;fontStyle=1;strokeColor=#FF6392;startSize=30;comic=0;" parent="372" vertex="1">
                    <mxGeometry x="10" y="70" width="40" height="40" as="geometry"/>
                </mxCell>
                <mxCell id="353" value="" style="edgeStyle=none;rounded=1;sketch=0;orthogonalLoop=1;jettySize=auto;html=1;labelBackgroundColor=none;fontColor=#5AA9E6;strokeColor=#FF6392;fillColor=#FFE45E;entryX=0.5;entryY=0;entryDx=0;entryDy=0;" parent="372" source="350" target="314" edge="1">
                    <mxGeometry relative="1" as="geometry"/>
                </mxCell>
                <mxCell id="355" value="" style="edgeStyle=none;rounded=1;sketch=0;orthogonalLoop=1;jettySize=auto;html=1;labelBackgroundColor=none;fontColor=#5AA9E6;strokeColor=#FF6392;fillColor=#FFE45E;entryX=0.5;entryY=0;entryDx=0;entryDy=0;" parent="372" source="347" target="314" edge="1">
                    <mxGeometry relative="1" as="geometry">
                        <mxPoint x="150" y="210" as="targetPoint"/>
                    </mxGeometry>
                </mxCell>
                <mxCell id="356" value="" style="group;fontColor=#5AA9E6;" parent="372" vertex="1" connectable="0">
                    <mxGeometry x="240" y="70" width="60" height="191" as="geometry"/>
                </mxCell>
                <mxCell id="357" value="" style="shape=waypoint;sketch=0;size=6;pointerEvents=1;points=[];fillColor=#FFE45E;resizable=0;rotatable=0;perimeter=centerPerimeter;snapToPoint=1;rounded=0;fontColor=#5AA9E6;fontStyle=1;strokeColor=#FF6392;startSize=30;comic=0;" parent="356" vertex="1">
                    <mxGeometry x="10" width="40" height="40" as="geometry"/>
                </mxCell>
                <mxCell id="358" value="Local: 3" style="swimlane;fontStyle=3;childLayout=stackLayout;horizontal=1;startSize=26;fillColor=none;horizontalStack=0;resizeParent=1;resizeParentMax=0;resizeLast=0;collapsible=1;marginBottom=0;strokeColor=#FF6392;fontColor=#FF3333;" parent="356" vertex="1">
                    <mxGeometry y="87" width="60" height="104" as="geometry">
                        <mxRectangle x="440" y="268.5" width="70" height="26" as="alternateBounds"/>
                    </mxGeometry>
                </mxCell>
                <mxCell id="359" value="10011..." style="text;fillColor=none;align=left;verticalAlign=top;spacingLeft=4;spacingRight=4;overflow=hidden;rotatable=0;points=[[0,0.5],[1,0.5]];portConstraint=eastwest;fontColor=#5AA9E6;strokeColor=#FF6392;" parent="358" vertex="1">
                    <mxGeometry y="26" width="60" height="26" as="geometry"/>
                </mxCell>
                <mxCell id="360" value="Â " style="text;fillColor=none;align=left;verticalAlign=top;spacingLeft=4;spacingRight=4;overflow=hidden;rotatable=0;points=[[0,0.5],[1,0.5]];portConstraint=eastwest;fontColor=#5AA9E6;strokeColor=#FF6392;" parent="358" vertex="1">
                    <mxGeometry y="52" width="60" height="26" as="geometry"/>
                </mxCell>
                <mxCell id="361" value="Â " style="text;strokeColor=none;fillColor=none;align=left;verticalAlign=top;spacingLeft=4;spacingRight=4;overflow=hidden;rotatable=0;points=[[0,0.5],[1,0.5]];portConstraint=eastwest;fontColor=#5AA9E6;" parent="358" vertex="1">
                    <mxGeometry y="78" width="60" height="26" as="geometry"/>
                </mxCell>
                <mxCell id="362" value="" style="edgeStyle=none;rounded=1;sketch=0;orthogonalLoop=1;jettySize=auto;html=1;labelBackgroundColor=none;fontColor=#5AA9E6;strokeColor=#FF6392;fillColor=#FFE45E;entryX=0.5;entryY=0;entryDx=0;entryDy=0;" parent="356" source="357" target="358" edge="1">
                    <mxGeometry x="-120" y="-70" as="geometry"/>
                </mxCell>
                <mxCell id="342" value="" style="group;fontColor=#5AA9E6;" parent="372" vertex="1" connectable="0">
                    <mxGeometry x="300" y="70" width="60" height="191" as="geometry"/>
                </mxCell>
                <mxCell id="313" value="" style="shape=waypoint;sketch=0;size=6;pointerEvents=1;points=[];fillColor=#FFE45E;resizable=0;rotatable=0;perimeter=centerPerimeter;snapToPoint=1;rounded=0;fontColor=#5AA9E6;fontStyle=1;strokeColor=#FF6392;startSize=30;comic=0;" parent="342" vertex="1">
                    <mxGeometry x="10" width="40" height="40" as="geometry"/>
                </mxCell>
                <mxCell id="320" value="Local: 3" style="swimlane;fontStyle=3;childLayout=stackLayout;horizontal=1;startSize=26;fillColor=none;horizontalStack=0;resizeParent=1;resizeParentMax=0;resizeLast=0;collapsible=1;marginBottom=0;strokeColor=#FF6392;fontColor=#FF3333;" parent="342" vertex="1">
                    <mxGeometry y="87" width="60" height="104" as="geometry">
                        <mxRectangle x="440" y="268.5" width="70" height="26" as="alternateBounds"/>
                    </mxGeometry>
                </mxCell>
                <mxCell id="321" value="10101..." style="text;fillColor=none;align=left;verticalAlign=top;spacingLeft=4;spacingRight=4;overflow=hidden;rotatable=0;points=[[0,0.5],[1,0.5]];portConstraint=eastwest;fontColor=#5AA9E6;strokeColor=#FF6392;" parent="320" vertex="1">
                    <mxGeometry y="26" width="60" height="26" as="geometry"/>
                </mxCell>
                <mxCell id="322" value="10111..." style="text;fillColor=none;align=left;verticalAlign=top;spacingLeft=4;spacingRight=4;overflow=hidden;rotatable=0;points=[[0,0.5],[1,0.5]];portConstraint=eastwest;strokeColor=#FF6392;fontColor=#FF3333;fontStyle=3" parent="320" vertex="1">
                    <mxGeometry y="52" width="60" height="26" as="geometry"/>
                </mxCell>
                <mxCell id="323" value="Â " style="text;strokeColor=none;fillColor=none;align=left;verticalAlign=top;spacingLeft=4;spacingRight=4;overflow=hidden;rotatable=0;points=[[0,0.5],[1,0.5]];portConstraint=eastwest;fontColor=#5AA9E6;" parent="320" vertex="1">
                    <mxGeometry y="78" width="60" height="26" as="geometry"/>
                </mxCell>
                <mxCell id="324" value="" style="edgeStyle=none;rounded=1;sketch=0;orthogonalLoop=1;jettySize=auto;html=1;labelBackgroundColor=none;fontColor=#5AA9E6;strokeColor=#FF6392;fillColor=#FFE45E;entryX=0.5;entryY=0;entryDx=0;entryDy=0;" parent="342" source="313" target="320" edge="1">
                    <mxGeometry x="-120" y="-70" as="geometry"/>
                </mxCell>
                <mxCell id="371" value="" style="edgeStyle=none;rounded=1;sketch=0;orthogonalLoop=1;jettySize=auto;html=1;labelBackgroundColor=none;fontColor=#5AA9E6;strokeColor=#FF6392;fillColor=#FFE45E;entryX=0.5;entryY=0;entryDx=0;entryDy=0;" parent="372" source="370" target="325" edge="1">
                    <mxGeometry relative="1" as="geometry"/>
                </mxCell>
                <mxCell id="370" value="" style="shape=waypoint;sketch=0;size=6;pointerEvents=1;points=[];fillColor=#FFE45E;resizable=0;rotatable=0;perimeter=centerPerimeter;snapToPoint=1;rounded=0;fontColor=#5AA9E6;fontStyle=1;strokeColor=#FF6392;startSize=30;comic=0;" parent="372" vertex="1">
                    <mxGeometry x="430" y="70" width="40" height="40" as="geometry"/>
                </mxCell>
                <mxCell id="319" value="" style="edgeStyle=none;rounded=1;sketch=0;orthogonalLoop=1;jettySize=auto;html=1;labelBackgroundColor=none;fontColor=#5AA9E6;strokeColor=#FF6392;fillColor=#FFE45E;entryX=0.5;entryY=0;entryDx=0;entryDy=0;exitX=0.447;exitY=0.549;exitDx=0;exitDy=0;exitPerimeter=0;" parent="372" source="311" target="314" edge="1">
                    <mxGeometry x="839" y="942" as="geometry">
                        <mxPoint x="528" y="559" as="sourcePoint"/>
                    </mxGeometry>
                </mxCell>
            </root>
        </mxGraphModel>
    </diagram>
</mxfile>
